<svg xmlns="http://www.w3.org/2000/svg" viewBox="0 0 200 120" width="200" height="120">
  <!-- Winged shoe logo - simple, bold, black -->
  
  <!-- LEFT WING -->
  <g id="left-wing">
    <!-- Primary feather -->
    <path d="M 60 30 Q 40 10 25 5 Q 35 20 50 35 Z" fill="#000"/>
    <!-- Secondary feather -->
    <path d="M 70 40 Q 50 20 35 15 Q 50 30 65 45 Z" fill="#000"/>
    <!-- Tertiary feather -->
    <path d="M 80 48 Q 60 30 45 28 Q 65 40 80 52 Z" fill="#000"/>
  </g>

  <!-- RIGHT WING -->
  <g id="right-wing">
    <!-- Primary feather -->
    <path d="M 140 30 Q 160 10 175 5 Q 165 20 150 35 Z" fill="#000"/>
    <!-- Secondary feather -->
    <path d="M 130 40 Q 150 20 165 15 Q 150 30 135 45 Z" fill="#000"/>
    <!-- Tertiary feather -->
    <path d="M 120 48 Q 140 30 155 28 Q 135 40 120 52 Z" fill="#000"/>
  </g>

  <!-- SHOE BODY -->
  <g id="shoe">
    <!-- Main shoe silhouette -->
    <ellipse cx="100" cy="70" rx="55" ry="25" fill="#000"/>
    
    <!-- Toe cap (pointed) -->
    <path d="M 150 70 L 170 65 L 165 75 Z" fill="#000"/>
    
    <!-- Shoe laces (horizontal lines) -->
    <line x1="75" y1="60" x2="100" y2="58" stroke="#fff" stroke-width="2.5" stroke-linecap="round" opacity="0.4"/>
    <line x1="75" y1="68" x2="100" y2="66" stroke="#fff" stroke-width="2.5" stroke-linecap="round" opacity="0.4"/>
    <line x1="75" y1="76" x2="100" y2="74" stroke="#fff" stroke-width="2.5" stroke-linecap="round" opacity="0.4"/>
    
    <!-- Midsole highlight -->
    <ellipse cx="100" cy="95" rx="55" ry="6" fill="#000" opacity="0.7"/>
  </g>
</svg>